<svg width="30" height="51" viewBox="0 0 30 51" fill="none" xmlns="http://www.w3.org/2000/svg">
<path d="M4.25006 13.814L3.55082 11.9733L0.725903 14.8907L1.42515 16.7314L4.25006 13.814ZM13.8576 49.4587C14.2438 50.4753 15.1892 50.6463 15.9693 49.8407C16.7494 49.0351 17.0687 47.5579 16.6825 46.5413L13.8576 49.4587ZM1.42515 16.7314L13.8576 49.4587L16.6825 46.5413L4.25006 13.814L1.42515 16.7314Z" fill="#F05454"/>
<path d="M29.1416 16.7238L29.836 14.8959L26.9581 11.9936L26.2637 13.8216L29.1416 16.7238ZM13.8313 46.5489C13.4477 47.5584 13.7811 49.0265 14.5758 49.828C15.3705 50.6294 16.3257 50.4607 16.7092 49.4511L13.8313 46.5489ZM26.2637 13.8216L13.8313 46.5489L16.7092 49.4511L29.1416 16.7238L26.2637 13.8216Z" fill="#F05454"/>
<path d="M10.9458 14.3636H19.5944" stroke="#F05454" strokeWidth="4"/>
<path d="M12.0269 8.90909L18.5133 8.90909" stroke="#F05454" strokeWidth="3"/>
<path d="M13.1079 4.36364L17.4322 4.36364" stroke="#F05454" strokeWidth="2"/>
<path d="M14.189 0.727272L16.3511 0.727272" stroke="#F05454"/>
</svg>
