<svg width="695" height="1080" viewBox="0 0 695 1080" fill="none" xmlns="http://www.w3.org/2000/svg">
<path d="M676.4 271.4L466 829H382L171.6 271.4H249.2L424.4 752.2L599.6 271.4H676.4Z" fill="#F05454"/>
<path d="M275.4 816.6C238.6 816.6 205.533 810.2 176.2 797.4C147.4 784.067 124.733 765.933 108.2 743C91.6667 719.533 83.1333 692.6 82.6 662.2H160.2C162.867 688.333 173.533 710.467 192.2 728.6C211.4 746.2 239.133 755 275.4 755C310.067 755 337.267 746.467 357 729.4C377.267 711.8 387.4 689.4 387.4 662.2C387.4 640.867 381.533 623.533 369.8 610.2C358.067 596.867 343.4 586.733 325.8 579.8C308.2 572.867 284.467 565.4 254.6 557.4C217.8 547.8 188.2 538.2 165.8 528.6C143.933 519 125 504.067 109 483.8C93.5333 463 85.8 435.267 85.8 400.6C85.8 370.2 93.5333 343.267 109 319.8C124.467 296.333 146.067 278.2 173.8 265.4C202.067 252.6 234.333 246.2 270.6 246.2C322.867 246.2 365.533 259.267 398.6 285.4C432.2 311.533 451.133 346.2 455.4 389.4H375.4C372.733 368.067 361.533 349.4 341.8 333.4C322.067 316.867 295.933 308.6 263.4 308.6C233 308.6 208.2 316.6 189 332.6C169.8 348.067 160.2 369.933 160.2 398.2C160.2 418.467 165.8 435 177 447.8C188.733 460.6 202.867 470.467 219.4 477.4C236.467 483.8 260.2 491.267 290.6 499.8C327.4 509.933 357 520.067 379.4 530.2C401.8 539.8 421 555 437 575.8C453 596.067 461 623.8 461 659C461 686.2 453.8 711.8 439.4 735.8C425 759.8 403.667 779.267 375.4 794.2C347.133 809.133 313.8 816.6 275.4 816.6Z" fill="#EEEEEE"/>
<path d="M192.562 336.396L258.308 312.219L247.562 282.998L325.986 270.745C325.986 270.745 333.291 268.059 320.613 256.135C307.935 244.211 242.19 268.388 242.19 268.388C242.19 268.388 234.885 271.075 222.207 259.151C209.529 247.227 152.361 69.2185 136.997 49.9897C121.633 30.7608 114.328 33.4467 115.082 58.0486C115.836 82.6505 187.614 255.286 185.681 272.583C183.749 289.879 176.444 292.566 176.444 292.566C176.444 292.566 110.698 316.743 108.766 334.039C106.833 351.336 114.138 348.649 114.138 348.649L181.817 307.176L192.562 336.396Z" fill="#393E46" stroke="#393E46"/>
<path d="M272.918 306.846L177.952 341.768C177.952 341.768 468.502 1064.22 494.07 1054.81C519.638 1045.41 272.918 306.846 272.918 306.846Z" fill="#F05454"/>
<path d="M271.345 294.959C299.031 305.164 158.486 356.847 172.964 331.137" stroke="#222831" stroke-width="5"/>
<path d="M276.881 303.126C274.379 307.062 176.978 342.88 172.523 341.503C168.068 340.126 166.114 334.813 168.616 330.877C171.117 326.942 268.518 291.124 272.974 292.501C277.429 293.878 279.383 299.191 276.881 303.126Z" fill="#393E46" stroke="#393E46"/>
<path d="M293.138 374.046L206.086 406.059C206.086 406.059 202.129 407.514 200.786 403.861C199.443 400.209 203.4 398.754 203.4 398.754L290.452 366.741C290.452 366.741 294.409 365.286 295.752 368.939C297.095 372.591 293.138 374.046 293.138 374.046Z" fill="#393E46"/>
<path d="M322.688 454.402L235.636 486.415C235.636 486.415 231.679 487.87 230.336 484.217C228.992 480.565 232.949 479.11 232.949 479.11L320.002 447.097C320.002 447.097 323.958 445.642 325.302 449.295C326.645 452.947 322.688 454.402 322.688 454.402Z" fill="#393E46"/>
<path d="M144.891 26.3541C146.989 54.6082 158.323 62.8795 131.412 68.6292C107.188 81.6839 110.463 68.04 93.7559 45.1585C89.3788 39.1639 91.6577 30.8517 94.4808 24.5785C112.608 17.4936 96.2775 6.91299 109.921 10.1885C118.193 -1.14614 112.743 17.8626 131.006 11.1467C137.221 14.0964 144.342 18.9518 144.891 26.3541Z" fill="#222831"/>
<path d="M251.462 290.919L184.409 315.327" stroke="#222831" stroke-width="11"/>
</svg>
