<svg width="48" height="48" viewBox="0 0 27 25" fill="none" xmlns="http://www.w3.org/2000/svg">
<g clip-path="url(#clip0_10_787)">
<path d="M15.6322 15.0965C15.6322 14.3723 15.023 13.7832 14.274 13.7832C14.2454 13.7832 14.2169 13.7844 14.1887 13.786V13.9524C14.217 13.9504 14.2452 13.9482 14.274 13.9482C14.9288 13.9482 15.4615 14.4633 15.4615 15.0965C15.4615 15.7297 14.9288 16.2448 14.274 16.2448C14.2548 16.2448 14.2361 16.2429 14.2172 16.2419V16.3039V16.4082V16.7348H13.7954V16.9547H14.7526V16.7348H14.3877V16.4047C15.0837 16.3486 15.6322 15.7835 15.6322 15.0965Z" fill="#EEEEEE"/>
<path d="M19.0774 5.81488L19.1007 5.99717L18.8182 6.05504L18.7801 6.44459H19.1207L19.5726 6.40284L19.8052 6.13378L19.5576 6.04093L19.4214 5.88954L19.217 5.56946L19.1207 5.1181L18.7352 5.19276L18.6289 5.3526V5.53171L18.8133 5.65421L19.0774 5.81488Z" fill="#EEEEEE"/>
<path d="M18.7499 5.9643L18.7698 5.72013L18.5456 5.62653L18.2307 5.69725L17.9956 6.05908V6.2944H18.2689L18.7499 5.9643Z" fill="#EEEEEE"/>
<path d="M12.2691 7.00325L12.1993 7.17594H11.8633V7.34379H11.9434C11.9434 7.34379 11.9484 7.37911 11.9554 7.42612L12.1611 7.40967L12.2886 7.33217L12.3218 7.17677L12.4888 7.16266L12.554 7.03214L12.4011 7.00159L12.2691 7.00325Z" fill="#EEEEEE"/>
<path d="M11.4031 7.3076L11.3906 7.47109L11.6345 7.45139L11.6594 7.28714L11.5132 7.1759L11.4031 7.3076Z" fill="#EEEEEE"/>
<path d="M25.9983 12.5361C25.9949 12.1751 25.9759 11.8173 25.9409 11.4643C25.8221 10.2884 25.5321 9.16145 25.0952 8.10526C25.0637 8.02735 25.0338 7.94743 24.9997 7.86952C24.419 6.54338 23.6032 5.33615 22.6063 4.294C22.5415 4.22576 22.4751 4.15905 22.4086 4.09241C22.2192 3.90327 22.0273 3.71806 21.8255 3.54136C19.5576 1.54417 16.5442 0.325317 13.2424 0.325317C9.9129 0.325317 6.87782 1.5667 4.60329 3.59321C4.07326 4.06552 3.58649 4.582 3.14413 5.1338C1.47762 7.21886 0.482422 9.83015 0.482422 12.6627C0.482422 19.465 6.20659 25 13.2424 25C18.192 25 22.4884 22.2594 24.6034 18.2667C25.0553 17.4145 25.4076 16.5045 25.6451 15.5503C25.705 15.3093 25.7581 15.0651 25.803 14.8185C25.9318 14.1177 26.0023 13.3972 26.0023 12.6619C26.0007 12.6209 25.9983 12.5787 25.9983 12.5361ZM23.5966 7.60524L23.6697 7.52491C23.7668 7.7072 23.8591 7.89158 23.9446 8.07989L23.8225 8.07505L23.5957 8.10519V7.60517H23.5966V7.60524ZM21.7523 5.4518L21.754 4.90076C21.955 5.10642 22.1478 5.31803 22.3322 5.53773L22.1029 5.86825L21.2987 5.86057L21.249 5.69874L21.7523 5.4518ZM6.36067 4.08356V4.06268H6.61571L6.63895 3.97793H7.05636V4.15421L6.93545 4.30879H6.35974V4.08349H6.36067V4.08356ZM6.769 4.63377C6.769 4.63377 7.02483 4.5916 7.04728 4.5916C7.06844 4.5916 7.04728 4.83861 7.04728 4.83861L6.46949 4.87394L6.35981 4.74625L6.769 4.63377ZM24.4091 9.53054H23.4753L22.9054 9.12128L22.3073 9.17714V9.53054H22.118L21.9144 9.38999L20.8768 9.13621V8.48638L19.5626 8.58475L19.1547 8.79643H18.6338L18.3771 8.77155L17.7441 9.11209V9.75183L16.4502 10.655L16.5574 11.041H16.8203L16.7514 11.4084L16.5669 11.4743L16.5574 12.4341L17.6752 13.6662H18.1627L18.1918 13.5915H19.0674L19.3199 13.3658H19.8166L20.0892 13.6293L20.8276 13.7032L20.7305 14.6542L21.5529 16.0562L21.1194 16.8562L21.1484 17.2321L21.4898 17.5606V18.4659L21.9367 19.0474V19.8007H22.3222C20.1739 22.3526 16.9009 23.9855 13.2399 23.9855C6.78266 23.9855 1.52953 18.9075 1.52953 12.6634C1.52953 11.0919 1.86307 9.59393 2.46453 8.23288V7.87989L2.88316 7.38837C3.02851 7.12249 3.18431 6.86422 3.3509 6.61168L3.36878 6.81728L2.88323 7.38837C2.73251 7.66386 2.59122 7.94502 2.4646 8.23295V8.87669L2.95015 9.10317V9.99876L3.4174 10.7686L3.79749 10.8245L3.84611 10.5606L3.3996 9.89272L3.31115 9.24371H3.57405L3.68538 9.91242L4.33252 10.8245L4.16593 11.1197L4.5759 11.7277L5.5977 11.9718V11.8124L6.00603 11.8683L5.96785 12.1502L6.28846 12.2072L6.78523 12.3377L7.48593 13.11L8.38017 13.1751L8.46861 13.8807L7.85515 14.2944L7.82726 14.9245L7.73882 15.3108L8.62441 16.3823L8.69212 16.7501C8.69212 16.7501 9.01315 16.8337 9.05305 16.8337C9.0913 16.8337 9.77248 17.3333 9.77248 17.3333V19.2706L10.0151 19.3373L9.85105 20.2304L10.2593 20.7582L10.183 21.6449L10.7237 22.5622L11.417 23.1478L12.1127 23.1614L12.1808 22.9438L11.6686 22.527L11.6985 22.3205L11.7895 22.0659L11.809 21.8073L11.463 21.7976L11.2885 21.5856L11.576 21.3173L11.6151 21.1157L11.2936 21.0266L11.3123 20.8386L11.77 20.7711L12.4657 20.4481L12.6992 20.0329L13.4282 19.1301L13.2629 18.424L13.4867 18.0481L14.1587 18.0673L14.6111 17.7203L14.7578 16.3589L15.2611 15.7452L15.3496 15.3509L14.8927 15.2095L14.5907 14.7296L13.5597 14.7196L12.7415 14.4188L12.7033 13.8545L12.4308 13.3931L11.6919 13.3831L11.2632 12.7345L10.8844 12.5558L10.8649 12.7534L10.1734 12.7927L9.92084 12.4522L9.20019 12.3108L8.60661 12.9746L7.67247 12.8205L7.60433 11.8024L6.92315 11.6896L7.19521 11.1904L7.11713 10.9036L6.22117 11.4823L5.65797 11.4157L5.45656 10.99L5.58075 10.5506L5.89099 9.99724L6.60584 9.64661H7.98735L7.98278 10.0539L8.47955 10.2775L8.43966 9.5819L8.79765 9.23369L9.52001 8.77466L9.57027 8.45258L10.2901 7.72767L11.0557 7.31724L10.9884 7.2638L11.5072 6.79191L11.697 6.84051L11.7838 6.94573L11.9812 6.73405L12.0298 6.71358L11.8138 6.68386L11.5933 6.61562V6.41079L11.71 6.31884H11.9659L12.0842 6.36903L12.1856 6.56661L12.3098 6.54815V6.53128L12.3455 6.54255L12.7044 6.48918L12.7555 6.31891L12.9594 6.3691V6.55348L12.7688 6.67916H12.7701L12.797 6.88157L13.4488 7.07472C13.4488 7.07472 13.4488 7.07714 13.4504 7.08233L13.599 7.06988L13.6095 6.79758L13.094 6.57069L13.0657 6.43975L13.4927 6.29921L13.5122 5.90364L13.0657 5.6406L13.0363 4.97231L12.4227 5.2639H12.198L12.2579 4.75545L11.4222 4.56547L11.0778 4.81808V5.58675L10.4577 5.77713L10.2085 6.27792L9.93978 6.31967V5.67835L9.35621 5.60002L9.06334 5.41565L8.94616 5.00038L9.99083 4.41L10.5013 4.25936L10.5528 4.59147L10.8382 4.5766L10.8602 4.40993L11.1581 4.36852L11.1631 4.31031L11.0355 4.25929L11.0064 4.08342L11.3723 4.0537L11.5933 3.83158L11.6062 3.81512L11.6087 3.81595L11.676 3.74848L12.4448 3.65488L12.7842 3.93361L11.8928 4.39264L13.0276 4.65168L13.1738 4.28459H13.6705L13.845 3.96486L13.4944 3.88011V3.47528L12.3963 3.00498L11.637 3.08973L11.2079 3.30577L11.237 3.8331L10.7896 3.76722L10.7207 3.47604L11.1502 3.09934L10.371 3.06236L10.1476 3.12824L10.0504 3.38243L10.3424 3.42986L10.2843 3.71219L9.78835 3.74025L9.71027 3.92864L8.98991 3.94779C8.98991 3.94779 8.9704 3.55298 8.93965 3.55298C8.91184 3.55298 9.50457 3.54295 9.50457 3.54295L9.93321 3.13854L9.69933 3.02572L9.3891 3.31766L8.87273 3.28959L8.55792 2.87349H7.89626L7.20551 3.37192H7.83813L7.89505 3.55146L7.7301 3.70161L8.43129 3.7209L8.53761 3.96507L7.74883 3.93693L7.70979 3.74855L7.21466 3.64492L6.9509 3.50438L6.36067 3.50915C8.29423 2.14734 10.6709 1.34134 13.2408 1.34134C16.2011 1.34134 18.908 2.41121 20.9716 4.16984L20.8336 4.41L20.2928 4.61476L20.0644 4.8541L20.1176 5.132L20.3959 5.16975L20.5645 5.57534L21.0438 5.38779L21.1244 5.93116H20.9782L20.5836 5.87454L20.1467 5.94519L19.723 6.5243L19.1182 6.61549L19.0309 7.11669L19.2868 7.1749L19.212 7.49739L18.6106 7.38056L18.0598 7.49739L17.9426 7.79417L18.0374 8.41704L18.3613 8.56326L18.9054 8.56007L19.2717 8.52793L19.3847 8.24601L19.958 7.52553L20.3344 7.60026L20.7057 7.27534L20.7754 7.52961L21.6892 8.12559L21.5779 8.27131L21.1658 8.25002L21.3253 8.46689L21.5795 8.5215L21.8769 8.40142L21.8702 8.05562L22.0032 7.99182L21.8968 7.88294L21.2871 7.55401L21.1259 7.11752H21.6335L21.7939 7.27292L22.2325 7.63634L22.2499 8.0765L22.7026 8.54196L22.8705 7.90381L23.1845 7.73831L23.2419 8.26039L23.5484 8.58531L24.159 8.5757C24.2778 8.8693 24.3841 9.16767 24.4755 9.47288L24.4091 9.53054ZM7.44102 5.9313L7.74633 5.78999L8.02382 5.85421L7.92915 6.21446L7.63007 6.30564L7.44102 5.9313ZM9.06756 6.7787V7.01168H8.36808L8.10432 6.94061L8.16996 6.77877L8.50601 6.64466H8.96625V6.77877H9.06756V6.7787ZM9.38995 7.10362V7.32892L9.21385 7.43815L8.99621 7.4779C8.99621 7.4779 8.99621 7.13895 8.99621 7.10355H9.38995V7.10362ZM9.19262 7.01168V6.74255L9.43307 6.95457L9.19262 7.01168ZM9.30222 7.55422V7.77392L9.13442 7.93617H8.76183L8.81996 7.68916L8.99606 7.6743L9.03181 7.58954L9.30222 7.55422ZM8.37523 7.10362H8.7619L8.26513 7.77392L8.06121 7.66787L8.10525 7.38554L8.37523 7.10362ZM9.95816 7.4779V7.69677H9.58558L9.48426 7.55422V7.35021H9.51329L9.95816 7.4779ZM9.61632 7.17593L9.72178 7.0683L9.90039 7.17593L9.75746 7.29041L9.61632 7.17593ZM24.5985 10.1024L24.635 10.0602C24.6516 10.1245 24.6666 10.1887 24.6824 10.253L24.5985 10.1024Z" fill="#EEEEEE"/>
<path d="M2.46533 7.87915V8.23214C2.59196 7.94337 2.73324 7.66312 2.88396 7.38715L2.46533 7.87915Z" fill="#EEEEEE"/>
</g>
<defs>
<clipPath id="clip0_10_787">
<rect width="25.52" height="24.6747" fill="white" transform="translate(0.482422 0.325317)"/>
</clipPath>
</defs>
</svg>
