<svg width="695" height="1080" viewBox="0 0 695 1080" fill="none" xmlns="http://www.w3.org/2000/svg">
<path d="M676.4 271.4L466 829H382L171.6 271.4H249.2L424.4 752.2L599.6 271.4H676.4Z" fill="#F05454"/>
<path d="M275.4 816.6C238.6 816.6 205.533 810.2 176.2 797.4C147.4 784.067 124.733 765.933 108.2 743C91.6666 719.533 83.1333 692.6 82.6 662.2H160.2C162.867 688.333 173.533 710.467 192.2 728.6C211.4 746.2 239.133 755 275.4 755C310.067 755 337.267 746.467 357 729.4C377.267 711.8 387.4 689.4 387.4 662.2C387.4 640.867 381.533 623.533 369.8 610.2C358.067 596.867 343.4 586.733 325.8 579.8C308.2 572.867 284.467 565.4 254.6 557.4C217.8 547.8 188.2 538.2 165.8 528.6C143.933 519 125 504.067 109 483.8C93.5333 463 85.8 435.267 85.8 400.6C85.8 370.2 93.5333 343.267 109 319.8C124.467 296.333 146.067 278.2 173.8 265.4C202.067 252.6 234.333 246.2 270.6 246.2C322.867 246.2 365.533 259.267 398.6 285.4C432.2 311.533 451.133 346.2 455.4 389.4H375.4C372.733 368.067 361.533 349.4 341.8 333.4C322.067 316.867 295.933 308.6 263.4 308.6C233 308.6 208.2 316.6 189 332.6C169.8 348.067 160.2 369.933 160.2 398.2C160.2 418.467 165.8 435 177 447.8C188.733 460.6 202.867 470.467 219.4 477.4C236.467 483.8 260.2 491.267 290.6 499.8C327.4 509.933 357 520.067 379.4 530.2C401.8 539.8 421 555 437 575.8C453 596.067 461 623.8 461 659C461 686.2 453.8 711.8 439.4 735.8C425 759.8 403.667 779.267 375.4 794.2C347.133 809.133 313.8 816.6 275.4 816.6Z" fill="#EEEEEE"/>
<path d="M192.562 336.396L258.308 312.219L247.562 282.998L325.986 270.745C325.986 270.745 333.291 268.059 320.613 256.135C307.935 244.211 242.19 268.388 242.19 268.388C242.19 268.388 234.885 271.075 222.207 259.151C209.529 247.227 152.361 69.2185 136.997 49.9896C121.633 30.7607 114.328 33.4467 115.082 58.0486C115.836 82.6504 187.614 255.286 185.681 272.583C183.749 289.879 176.444 292.565 176.444 292.565C176.444 292.565 110.698 316.743 108.766 334.039C106.833 351.336 114.138 348.649 114.138 348.649L181.817 307.176L192.562 336.396Z" fill="#393E46" stroke="#393E46"/>
<path d="M272.918 306.846L177.952 341.768C177.952 341.768 468.502 1064.22 494.07 1054.81C519.638 1045.41 272.918 306.846 272.918 306.846Z" fill="#F05454"/>
<path d="M271.345 294.959C299.031 305.164 158.486 356.847 172.964 331.137" stroke="#222831" stroke-width="5"/>
<path d="M276.881 303.126C274.379 307.062 176.978 342.88 172.523 341.503C168.068 340.126 166.114 334.813 168.616 330.877C171.117 326.942 268.518 291.124 272.974 292.501C277.429 293.878 279.383 299.191 276.881 303.126Z" fill="#393E46" stroke="#393E46"/>
<path d="M293.138 374.046L206.086 406.059C206.086 406.059 202.129 407.514 200.786 403.861C199.443 400.209 203.399 398.754 203.399 398.754L290.452 366.741C290.452 366.741 294.409 365.286 295.752 368.939C297.095 372.591 293.138 374.046 293.138 374.046Z" fill="#393E46"/>
<path d="M322.688 454.402L235.636 486.415C235.636 486.415 231.679 487.87 230.336 484.217C228.992 480.565 232.949 479.11 232.949 479.11L320.002 447.097C320.002 447.097 323.958 445.642 325.302 449.295C326.645 452.947 322.688 454.402 322.688 454.402Z" fill="#393E46"/>
<path d="M120.174 40.279L121.201 40.8604L121.606 39.7524L131.564 12.5317C134.32 13.9144 137.135 15.657 139.383 17.8038C141.894 20.2028 143.643 23.0508 143.894 26.4281C144.423 33.5542 145.535 39.4179 146.473 44.2609C146.495 44.3777 146.518 44.4938 146.54 44.6093C147.454 49.3281 148.156 52.947 148.031 55.8884C147.907 58.7968 146.979 60.9542 144.565 62.7725C142.06 64.6589 137.907 66.219 131.203 67.6512L131.064 67.6811L130.938 67.7488C124.903 71.0008 120.729 72.5033 117.599 72.6888C114.582 72.8676 112.477 71.8259 110.499 69.6904C108.498 67.5306 106.688 64.3196 104.327 60.1328C104.269 60.0303 104.211 59.9272 104.153 59.8235C101.729 55.5267 98.7774 50.3399 94.5635 44.5688C92.5664 41.8338 92.0537 38.5311 92.4129 35.0764C92.7343 31.9847 93.7493 28.8339 94.9528 25.9951L120.174 40.279ZM96.7336 24.7051C100.216 23.0851 102.281 21.2805 103.466 19.4169C104.859 17.2253 104.94 15.0955 104.882 13.4627C104.871 13.169 104.858 12.9072 104.845 12.6688C104.821 12.2065 104.802 11.8319 104.818 11.4819C104.843 10.9693 104.943 10.8293 104.993 10.7813C105.047 10.73 105.274 10.5665 106.073 10.5758C106.854 10.5848 108.004 10.7567 109.688 11.1609L110.336 11.3165L110.729 10.778C111.749 9.38035 112.514 8.51312 113.102 8.01192C113.7 7.50233 113.975 7.49035 114.049 7.49694C114.132 7.50432 114.314 7.56308 114.675 7.95731C114.917 8.22128 115.147 8.52478 115.426 8.89477C115.576 9.09334 115.741 9.31106 115.93 9.5521C116.951 10.8558 118.399 12.4437 120.881 13.1936C122.983 13.8285 125.702 13.8272 129.355 12.7491L120.133 37.9573L96.7336 24.7051Z" fill="#222831" stroke="#393E46" stroke-width="2"/>
<path d="M251.462 290.919L184.409 315.327" stroke="#222831" stroke-width="11"/>
<path d="M145 59L123.5 90L154 87L130 109L162 108" stroke="#222831"/>
<path d="M162 108L138 130L170 130.5L144.5 149.5H177" stroke="#222831"/>
<path d="M177 149L153 171L185 171.5L159.5 190.5H192" stroke="#222831"/>
<path d="M192 190L168 212L200 212.5L174.5 231.5H207" stroke="#222831"/>
<path d="M208 231L184 253L216 253.5L190.5 272.5H223" stroke="#222831"/>
</svg>
